<svg width="102" height="47" viewBox="0 0 102 47" fill="none" xmlns="http://www.w3.org/2000/svg">
<path d="M16.0396 2.47372C19.443 0.50876 23.6362 0.50876 27.0396 2.47372L36.5792 7.98141C39.9826 9.94639 42.0792 13.5778 42.0792 17.5077V28.5231C42.0792 32.453 39.9826 36.0844 36.5792 38.0494L27.0396 43.5571C23.6362 45.522 19.443 45.522 16.0396 43.5571L6.50001 38.0494C3.09659 36.0844 1 32.453 1 28.5231V17.5077C1 13.5778 3.09659 9.94639 6.5 7.98141L16.0396 2.47372Z" stroke="white" stroke-width="2"/>
<path d="M88.5 10H48.5C41.5964 10 36 15.5964 36 22.5C36 29.4036 41.5964 35 48.5 35H88.5C95.4036 35 101 29.4036 101 22.5C101 15.5964 95.4036 10 88.5 10Z" fill="white" stroke="white" stroke-width="2"/>
<path d="M48.3505 26C48.1985 26 48.0625 25.944 47.9425 25.832C47.8225 25.72 47.7625 25.572 47.7625 25.388V19.472C47.7625 18.896 47.8745 18.396 48.0985 17.972C48.3305 17.548 48.6505 17.22 49.0585 16.988C49.4665 16.748 49.9385 16.628 50.4745 16.628C50.6505 16.628 50.7945 16.68 50.9065 16.784C51.0265 16.888 51.0865 17.02 51.0865 17.18C51.0865 17.332 51.0265 17.464 50.9065 17.576C50.7945 17.68 50.6505 17.732 50.4745 17.732C50.1785 17.732 49.9185 17.8 49.6945 17.936C49.4705 18.072 49.2945 18.26 49.1665 18.5C49.0465 18.74 48.9865 19.024 48.9865 19.352V25.388C48.9865 25.572 48.9305 25.72 48.8185 25.832C48.7065 25.944 48.5505 26 48.3505 26ZM47.2465 20.708C47.0785 20.708 46.9425 20.66 46.8385 20.564C46.7345 20.468 46.6825 20.348 46.6825 20.204C46.6825 20.044 46.7345 19.916 46.8385 19.82C46.9425 19.724 47.0785 19.676 47.2465 19.676H50.2105C50.3785 19.676 50.5145 19.724 50.6185 19.82C50.7225 19.916 50.7745 20.044 50.7745 20.204C50.7745 20.348 50.7225 20.468 50.6185 20.564C50.5145 20.66 50.3785 20.708 50.2105 20.708H47.2465ZM54.5504 26.048C53.9664 26.048 53.4424 25.904 52.9784 25.616C52.5144 25.32 52.1464 24.924 51.8744 24.428C51.6104 23.924 51.4784 23.356 51.4784 22.724C51.4784 22.092 51.6224 21.524 51.9104 21.02C52.2064 20.516 52.6024 20.12 53.0984 19.832C53.6024 19.536 54.1664 19.388 54.7904 19.388C55.4144 19.388 55.9744 19.536 56.4704 19.832C56.9664 20.12 57.3584 20.516 57.6464 21.02C57.9424 21.524 58.0904 22.092 58.0904 22.724H57.6224C57.6224 23.356 57.4864 23.924 57.2144 24.428C56.9504 24.924 56.5864 25.32 56.1224 25.616C55.6584 25.904 55.1344 26.048 54.5504 26.048ZM54.7904 24.968C55.1984 24.968 55.5624 24.872 55.8824 24.68C56.2024 24.48 56.4544 24.212 56.6384 23.876C56.8224 23.532 56.9144 23.148 56.9144 22.724C56.9144 22.292 56.8224 21.908 56.6384 21.572C56.4544 21.228 56.2024 20.96 55.8824 20.768C55.5624 20.568 55.1984 20.468 54.7904 20.468C54.3904 20.468 54.0264 20.568 53.6984 20.768C53.3784 20.96 53.1224 21.228 52.9304 21.572C52.7464 21.908 52.6544 22.292 52.6544 22.724C52.6544 23.148 52.7464 23.532 52.9304 23.876C53.1224 24.212 53.3784 24.48 53.6984 24.68C54.0264 24.872 54.3904 24.968 54.7904 24.968ZM57.4784 26.012C57.3024 26.012 57.1544 25.956 57.0344 25.844C56.9224 25.724 56.8664 25.576 56.8664 25.4V23.564L57.0944 22.292L58.0904 22.724V25.4C58.0904 25.576 58.0304 25.724 57.9104 25.844C57.7984 25.956 57.6544 26.012 57.4784 26.012ZM62.3 26.048C61.74 26.048 61.22 25.964 60.74 25.796C60.268 25.62 59.9 25.4 59.636 25.136C59.516 25.008 59.464 24.864 59.48 24.704C59.504 24.536 59.584 24.4 59.72 24.296C59.88 24.168 60.036 24.116 60.188 24.14C60.348 24.156 60.484 24.224 60.596 24.344C60.732 24.496 60.948 24.64 61.244 24.776C61.548 24.904 61.884 24.968 62.252 24.968C62.716 24.968 63.068 24.892 63.308 24.74C63.556 24.588 63.684 24.392 63.692 24.152C63.7 23.912 63.584 23.704 63.344 23.528C63.112 23.352 62.684 23.208 62.06 23.096C61.252 22.936 60.664 22.696 60.296 22.376C59.936 22.056 59.756 21.664 59.756 21.2C59.756 20.792 59.876 20.456 60.116 20.192C60.356 19.92 60.664 19.72 61.04 19.592C61.416 19.456 61.808 19.388 62.216 19.388C62.744 19.388 63.212 19.472 63.62 19.64C64.028 19.808 64.352 20.04 64.592 20.336C64.704 20.464 64.756 20.6 64.748 20.744C64.74 20.88 64.672 20.996 64.544 21.092C64.416 21.18 64.264 21.208 64.088 21.176C63.912 21.144 63.764 21.072 63.644 20.96C63.444 20.768 63.228 20.636 62.996 20.564C62.764 20.492 62.496 20.456 62.192 20.456C61.84 20.456 61.54 20.516 61.292 20.636C61.052 20.756 60.932 20.932 60.932 21.164C60.932 21.308 60.968 21.44 61.04 21.56C61.12 21.672 61.272 21.776 61.496 21.872C61.72 21.96 62.048 22.048 62.48 22.136C63.08 22.256 63.552 22.408 63.896 22.592C64.248 22.776 64.5 22.992 64.652 23.24C64.804 23.48 64.88 23.76 64.88 24.08C64.88 24.448 64.78 24.78 64.58 25.076C64.388 25.372 64.1 25.608 63.716 25.784C63.34 25.96 62.868 26.048 62.3 26.048ZM67.0397 23.612C66.8637 23.612 66.7157 23.556 66.5957 23.444C66.4837 23.324 66.4277 23.176 66.4277 23V17.24C66.4277 17.056 66.4837 16.908 66.5957 16.796C66.7157 16.684 66.8637 16.628 67.0397 16.628C67.2237 16.628 67.3717 16.684 67.4837 16.796C67.5957 16.908 67.6517 17.056 67.6517 17.24V23C67.6517 23.176 67.5957 23.324 67.4837 23.444C67.3717 23.556 67.2237 23.612 67.0397 23.612ZM71.9717 26.012C71.7957 26.012 71.6477 25.956 71.5277 25.844C71.4157 25.724 71.3597 25.576 71.3597 25.4V22.448C71.3597 21.992 71.2757 21.62 71.1077 21.332C70.9397 21.044 70.7117 20.832 70.4237 20.696C70.1437 20.552 69.8197 20.48 69.4517 20.48C69.1157 20.48 68.8117 20.548 68.5397 20.684C68.2677 20.82 68.0517 21.004 67.8917 21.236C67.7317 21.46 67.6517 21.72 67.6517 22.016H66.8957C66.8957 21.512 67.0157 21.064 67.2557 20.672C67.5037 20.272 67.8397 19.956 68.2637 19.724C68.6877 19.492 69.1637 19.376 69.6917 19.376C70.2437 19.376 70.7357 19.496 71.1677 19.736C71.6077 19.968 71.9517 20.312 72.1997 20.768C72.4557 21.224 72.5837 21.784 72.5837 22.448V25.4C72.5837 25.576 72.5237 25.724 72.4037 25.844C72.2917 25.956 72.1477 26.012 71.9717 26.012ZM67.0397 26.012C66.8637 26.012 66.7157 25.956 66.5957 25.844C66.4837 25.724 66.4277 25.576 66.4277 25.4V20.048C66.4277 19.864 66.4837 19.716 66.5957 19.604C66.7157 19.492 66.8637 19.436 67.0397 19.436C67.2237 19.436 67.3717 19.492 67.4837 19.604C67.5957 19.716 67.6517 19.864 67.6517 20.048V25.4C67.6517 25.576 67.5957 25.724 67.4837 25.844C67.3717 25.956 67.2237 26.012 67.0397 26.012ZM75.3511 26C75.1751 26 75.0271 25.944 74.9071 25.832C74.7951 25.712 74.7391 25.564 74.7391 25.388V20.048C74.7391 19.864 74.7951 19.716 74.9071 19.604C75.0271 19.492 75.1751 19.436 75.3511 19.436C75.5351 19.436 75.6831 19.492 75.7951 19.604C75.9071 19.716 75.9631 19.864 75.9631 20.048V25.388C75.9631 25.564 75.9071 25.712 75.7951 25.832C75.6831 25.944 75.5351 26 75.3511 26ZM75.3511 18.368C75.1351 18.368 74.9471 18.292 74.7871 18.14C74.6351 17.98 74.5591 17.792 74.5591 17.576C74.5591 17.36 74.6351 17.176 74.7871 17.024C74.9471 16.864 75.1351 16.784 75.3511 16.784C75.5671 16.784 75.7511 16.864 75.9031 17.024C76.0631 17.176 76.1431 17.36 76.1431 17.576C76.1431 17.792 76.0631 17.98 75.9031 18.14C75.7511 18.292 75.5671 18.368 75.3511 18.368ZM81.2162 26.048C80.5682 26.048 79.9962 25.908 79.5002 25.628C79.0042 25.34 78.6122 24.948 78.3242 24.452C78.0442 23.948 77.9042 23.372 77.9042 22.724C77.9042 22.068 78.0442 21.492 78.3242 20.996C78.6122 20.492 79.0042 20.1 79.5002 19.82C79.9962 19.532 80.5682 19.388 81.2162 19.388C81.8562 19.388 82.4242 19.532 82.9202 19.82C83.4162 20.1 83.8042 20.492 84.0842 20.996C84.3722 21.492 84.5162 22.068 84.5162 22.724C84.5162 23.372 84.3762 23.948 84.0962 24.452C83.8162 24.948 83.4282 25.34 82.9322 25.628C82.4362 25.908 81.8642 26.048 81.2162 26.048ZM81.2162 24.968C81.6322 24.968 82.0002 24.872 82.3202 24.68C82.6402 24.488 82.8882 24.224 83.0642 23.888C83.2482 23.552 83.3402 23.164 83.3402 22.724C83.3402 22.284 83.2482 21.896 83.0642 21.56C82.8882 21.216 82.6402 20.948 82.3202 20.756C82.0002 20.564 81.6322 20.468 81.2162 20.468C80.8002 20.468 80.4322 20.564 80.1122 20.756C79.7922 20.948 79.5402 21.216 79.3562 21.56C79.1722 21.896 79.0802 22.284 79.0802 22.724C79.0802 23.164 79.1722 23.552 79.3562 23.888C79.5402 24.224 79.7922 24.488 80.1122 24.68C80.4322 24.872 80.8002 24.968 81.2162 24.968ZM91.8818 26.012C91.7058 26.012 91.5578 25.956 91.4378 25.844C91.3258 25.724 91.2698 25.576 91.2698 25.4V22.448C91.2698 21.992 91.1858 21.62 91.0178 21.332C90.8498 21.044 90.6218 20.832 90.3338 20.696C90.0538 20.552 89.7298 20.48 89.3618 20.48C89.0258 20.48 88.7218 20.548 88.4498 20.684C88.1778 20.82 87.9618 21.004 87.8018 21.236C87.6418 21.46 87.5618 21.72 87.5618 22.016H86.8058C86.8058 21.512 86.9258 21.064 87.1658 20.672C87.4138 20.272 87.7498 19.956 88.1738 19.724C88.5978 19.492 89.0738 19.376 89.6018 19.376C90.1538 19.376 90.6458 19.496 91.0778 19.736C91.5178 19.968 91.8618 20.312 92.1098 20.768C92.3658 21.224 92.4938 21.784 92.4938 22.448V25.4C92.4938 25.576 92.4338 25.724 92.3138 25.844C92.2018 25.956 92.0578 26.012 91.8818 26.012ZM86.9498 26.012C86.7738 26.012 86.6258 25.956 86.5058 25.844C86.3938 25.724 86.3378 25.576 86.3378 25.4V20.048C86.3378 19.864 86.3938 19.716 86.5058 19.604C86.6258 19.492 86.7738 19.436 86.9498 19.436C87.1338 19.436 87.2818 19.492 87.3938 19.604C87.5058 19.716 87.5618 19.864 87.5618 20.048V25.4C87.5618 25.576 87.5058 25.724 87.3938 25.844C87.2818 25.956 87.1338 26.012 86.9498 26.012Z" fill="#2B3445"/>
<path d="M22 11C20.3394 11 18.7882 11.3189 17.3458 11.9568C15.8867 12.5948 14.6121 13.4596 13.5219 14.5509C12.4317 15.642 11.5765 16.9098 10.9558 18.3535C10.3185 19.8143 10 21.3672 10 23.0127C10 24.6747 10.3185 26.236 10.9558 27.6966C11.5765 29.1574 12.4317 30.425 13.5219 31.4994C14.6121 32.5908 15.8867 33.4469 17.3458 34.0682C18.7882 34.6893 20.3394 35 22 35L30.9054 35C31.2914 35 31.6518 34.9243 31.9872 34.7734C32.3228 34.6389 32.6163 34.4459 32.8679 34.194C33.1193 33.9422 33.3205 33.6402 33.4715 33.2876C33.6225 32.9518 33.6981 32.5908 33.6981 32.2047C33.6981 31.5498 33.5052 30.9957 33.1193 30.5426C32.7336 30.0892 32.2472 29.787 31.6602 29.6359C32.3813 28.6788 32.9517 27.6381 33.3709 26.513C33.7903 25.405 34 24.2382 34 23.0127C34 21.3672 33.6896 19.8143 33.0689 18.3535C32.4316 16.9098 31.568 15.642 30.4778 14.5509C29.3876 13.4596 28.113 12.5948 26.654 11.9568C25.195 11.3189 23.6435 11 22 11ZM22 16.4649C22.8889 16.4649 23.7357 16.6326 24.5408 16.9684C25.3291 17.321 26.0251 17.7912 26.629 18.3788C27.2159 18.9833 27.6854 19.6798 28.0377 20.4689C28.3731 21.258 28.5409 22.1059 28.5409 23.0127C28.5409 23.9191 28.3731 24.767 28.0377 25.5561C27.6854 26.3621 27.2159 27.0586 26.629 27.6462C26.0251 28.2338 25.3291 28.6956 24.5408 29.0314C23.7357 29.3671 22.8889 29.5351 22 29.5351C21.0942 29.5351 20.2472 29.3671 19.459 29.0314C18.6541 28.6956 17.958 28.2338 17.371 27.6462C16.7841 27.0586 16.3227 26.3621 15.9874 25.5561C15.6351 24.767 15.4591 23.9191 15.4591 23.0127C15.4591 22.1228 15.6351 21.2749 15.9874 20.4689C16.3227 19.6798 16.7841 18.9833 17.371 18.3788C17.958 17.7912 18.6541 17.321 19.459 16.9684C20.2472 16.6326 21.0942 16.4649 22 16.4649Z" fill="white"/>
</svg>
