<svg width="105" height="50" viewBox="0 0 105 50" fill="none" xmlns="http://www.w3.org/2000/svg">
<g clip-path="url(#clip0_903_4)">
<path d="M19.0396 4.47372C22.443 2.50876 26.6362 2.50876 30.0396 4.47372L39.5792 9.98141C42.9826 11.9464 45.0792 15.5778 45.0792 19.5077V30.5231C45.0792 34.453 42.9826 38.0844 39.5792 40.0494L30.0396 45.5571C26.6362 47.522 22.443 47.522 19.0396 45.5571L9.50001 40.0494C6.09659 38.0844 4 34.453 4 30.5231V19.5077C4 15.5778 6.09659 11.9464 9.5 9.98141L19.0396 4.47372Z" stroke="#4B566B" stroke-width="2"/>
<path d="M91.5 12H51.5C44.5964 12 39 17.5964 39 24.5C39 31.4036 44.5964 37 51.5 37H91.5C98.4036 37 104 31.4036 104 24.5C104 17.5964 98.4036 12 91.5 12Z" fill="#2B3445" stroke="#2B3445" stroke-width="2"/>
<path d="M57.9 21.92V20.12H56.94V20.72H56.1V20.12H55.74V20.72H54.3V19.88H55.02V20.12H54.54V20.48H55.5V19.88H56.34V20.48H56.7V19.88H58.14V21.68H58.5V21.08H61.14V21.92H60.42V21.68H60.9V21.32H58.74V21.92H57.9ZM53.7 21.92V20H53.94V21.68H54.42V21.92H53.7ZM58.5 20.72V20H58.74V20.48H59.82V20.72H58.5ZM52.02 21.32V21.08H53.1V20.72H52.62V20.48H53.34V21.32H52.02ZM56.22 21.32V21.08H57.3V20.6H57.54V21.32H56.22ZM55.02 21.32V21.08H55.62V21.32H55.02ZM52.5 22.4V21.68H53.34V22.4H53.1V21.92H52.74V22.4H52.5ZM54.3 26.12V25.28H54.9V24.68H55.74V25.88H56.1V23.48H57.9V22.88H58.5V22.28H59.1V21.68H59.94V22.28H61.02V22.52H59.7V21.92H59.34V22.52H58.74V23.12H58.14V23.72H56.34V26.12H55.5V24.92H55.14V25.52H54.54V25.88H55.02V26.12H54.3ZM54.9 23V21.68H56.34V22.28H56.7V21.68H57.54V23H57.3V21.92H56.94V22.52H56.1V21.92H55.14V23H54.9ZM51.9 24.8V24.32H51.3V23.48H51.9V22.52H51.54V23H51.3V22.28H52.14V23.72H51.54V24.08H52.14V24.8H51.9ZM53.1 24.92V24.32H52.5V23.48H53.1V22.88H53.7V22.28H54.54V23.72H53.82V23.48H54.3V22.52H53.94V23.12H53.34V23.72H52.74V24.08H53.34V24.68H53.7V24.2H53.94V24.92H53.1ZM55.5 23V22.4H55.74V23H55.5ZM59.22 23.12V22.88H61.02V23.12H59.22ZM54.9 24.32V23.6H55.14V24.08H55.5V23.6H55.74V24.32H54.9ZM60.3 26.12V25.52H59.7V24.92H59.1V24.08H59.82V24.32H59.34V24.68H59.94V25.28H60.54V25.88H60.9V25.4H61.14V26.12H60.3ZM55.02 27.32V27.08H55.5V26.48H56.7V24.08H57.42V24.32H56.94V26.72H55.74V27.32H55.02ZM57.9 24.8V24.08H58.74V24.8H58.5V24.32H58.14V24.8H57.9ZM54.3 24.8V24.2H54.54V24.8H54.3ZM60.42 24.92V24.68H61.02V24.92H60.42ZM52.5 25.4V24.8H52.74V25.4H52.5ZM57.3 25.52V24.8H57.54V25.28H59.22V25.52H57.3ZM53.1 26.12V25.28H53.82V25.52H53.34V25.88H53.82V26.12H53.1ZM59.1 27.32V26.12H58.74V26.72H57.9V26.12H57.54V26.6H57.3V25.88H58.14V26.48H58.5V25.88H59.34V27.08H61.5V25.4H61.74V27.32H59.1ZM59.7 26.6V26H59.94V26.6H59.7ZM60.42 26.72V26.48H61.02V26.72H60.42ZM51.42 27.32V27.08H52.62V27.32H51.42ZM53.1 27.92V27.08H53.82V27.32H53.34V27.68H53.82V27.92H53.1ZM58.5 27.92V27.32H58.02V27.08H58.74V27.68H59.22V27.92H58.5ZM54.3 30.32V29.48H54.9V29.12H53.7V28.52H52.74V29.12H51.9V27.92H51.54V28.4H51.3V27.68H52.14V28.88H52.5V28.28H53.94V28.88H55.14V29.72H54.54V30.08H55.5V28.28H56.7V27.92H55.14V28.52H54.3V27.2H54.54V28.28H54.9V27.68H56.94V28.52H55.74V30.32H54.3ZM57.9 28.4V27.92H57.3V27.2H57.54V27.68H58.14V28.4H57.9ZM60.3 29.12V27.92H59.82V27.68H60.54V28.88H60.9V27.68H61.74V28.4H61.5V27.92H61.14V29.12H60.3ZM58.5 30.32V29.6H58.74V30.08H59.1V29.48H59.7V29.12H59.1V28.52H58.74V29.12H58.14V29.72H57.3V29H57.54V29.48H57.9V28.88H58.5V28.28H59.34V28.88H59.94V29.72H59.34V30.32H58.5ZM56.7 29.6V29.12H56.22V28.88H56.94V29.6H56.7ZM52.62 29.72V29.48H53.1V29H53.34V29.72H52.62ZM53.7 30.2V29.6H53.94V30.2H53.7ZM56.1 30.32V29.6H56.34V30.08H58.02V30.32H56.1ZM63.5769 19.92V19.08H65.9769V18.48H66.5769V18.12H65.6169V18.72H64.7769V18.12H63.5769V17.28H64.7769V16.92H63.5769V16.08H64.8969V16.32H63.8169V16.68H65.0169V17.52H63.8169V17.88H65.0169V18.48H65.3769V17.88H66.8169V18.72H66.2169V19.32H63.8169V19.68H64.2969V19.92H63.5769ZM67.1769 24.12V21.72H65.9769V20.88H66.5769V20.52H65.9769V19.68H67.7769V16.92H66.2169V17.52H65.3769V16.08H67.8969V16.32H65.6169V17.28H65.9769V16.68H68.0169V19.92H66.2169V20.28H66.8169V21.12H66.2169V21.48H67.4169V23.88H67.7769V22.2H68.0169V24.12H67.1769ZM66.6969 17.52V17.28H67.2969V17.52H66.6969ZM66.6969 19.32V19.08H67.1769V18H67.4169V19.32H66.6969ZM63.6969 18.72V18.48H64.2969V18.72H63.6969ZM64.8969 19.92V19.68H65.4969V19.92H64.8969ZM64.2969 20.52V20.28H64.8969V20.52H64.2969ZM67.7769 21.6V21.12H67.1769V20.28H67.8969V20.52H67.4169V20.88H68.0169V21.6H67.7769ZM64.8969 21.12V20.88H65.3769V20.4H65.6169V21.12H64.8969ZM63.5769 24.12V22.08H64.8969V22.32H63.8169V23.88H65.3769V23.52H64.1769V22.68H65.9769V22.32H65.3769V21.72H64.1769V21.12H63.5769V20.4H63.8169V20.88H64.4169V21.48H65.6169V22.08H66.2169V22.92H64.4169V23.28H65.6169V24.12H63.5769ZM65.3769 27.72V26.28H65.9769V24.72H65.0169V25.08H65.6169V25.92H64.4169V26.28H65.0169V27.12H63.5769V24.48H64.4169V25.2H64.1769V24.72H63.8169V26.88H64.7769V26.52H64.1769V25.68H65.3769V25.32H64.7769V24.48H66.2169V26.52H65.6169V27.48H67.1769V26.88H67.7769V26.52H67.1769V25.68H67.7769V25.32H67.1769V24.72H66.5769V24.12H65.9769V23.28H66.5769V22.2H66.8169V23.52H66.2169V23.88H66.8169V24.48H67.4169V25.08H68.0169V25.92H67.4169V26.28H68.0169V27.12H67.4169V27.72H65.3769ZM66.5769 25.8V25.2H66.8169V25.8H66.5769ZM66.0969 27.12V26.88H66.5769V26.4H66.8169V27.12H66.0969ZM63.5769 30.12V27.48H64.4169V28.2H64.1769V27.72H63.8169V29.88H64.1769V28.68H64.7769V28.08H66.2169V28.68H66.5769V28.2H66.8169V28.92H65.9769V28.32H65.0169V28.92H64.4169V30.12H63.5769ZM64.7769 30.12V29.28H65.3769V28.8H65.6169V29.52H65.0169V29.88H66.5769V29.28H67.4169V29.88H67.7769V28.2H68.0169V30.12H67.1769V29.52H66.8169V30.12H64.7769ZM67.1769 28.8V28.2H67.4169V28.8H67.1769ZM71.8817 23.12V22.28H72.6017V22.52H72.1217V22.88H73.0817V21.92H72.4817V21.08H74.8817V20.48H75.7217V21.68H76.0817V20.12H73.9217V20.72H72.4817V19.88H73.2017V20.12H72.7217V20.48H73.6817V19.88H76.3217V21.92H75.4817V20.72H75.1217V21.32H72.7217V21.68H73.3217V23.12H71.8817ZM76.6817 20.6V19.88H78.0017V20.12H76.9217V20.6H76.6817ZM70.0817 23V22.28H70.6817V21.08H71.8817V20.72H71.4017V20.48H72.1217V21.32H70.9217V22.52H70.3217V23H70.0817ZM76.6817 22.4V21.08H77.2817V20.48H78.1217V21.08H78.4817V20.48H79.2017V20.72H78.7217V21.32H77.8817V20.72H77.5217V21.32H76.9217V22.4H76.6817ZM79.2017 21.32V21.08H79.8017V21.32H79.2017ZM71.2817 23V21.68H72.0017V21.92H71.5217V23H71.2817ZM74.2817 22.4V21.68H75.0017V21.92H74.5217V22.4H74.2817ZM78.4817 24.32V23.12H78.1217V23.72H76.2017V23.48H77.8817V22.88H78.7217V24.08H79.0817V22.28H79.6817V21.92H77.5217V22.28H78.6017V22.52H77.2817V21.68H79.9217V22.52H79.3217V24.32H78.4817ZM74.2817 26.12V25.28H75.4817V23.72H75.1217V24.32H74.2817V23.12H73.6817V21.8H73.9217V22.88H74.5217V24.08H74.8817V23.48H75.7217V25.52H74.5217V25.88H75.0017V26.12H74.2817ZM76.0817 23.12V22.52H75.0017V22.28H76.3217V22.88H77.4017V23.12H76.0817ZM76.0817 30.32V27.68H77.8817V27.32H77.2817V26.48H77.8817V26.12H76.9217V27.32H75.7217V27.92H75.1217V29H74.8817V27.68H75.4817V27.08H76.6817V25.88H78.1217V26.72H77.5217V27.08H78.1217V27.92H76.3217V30.08H77.2817V29.12H76.6817V28.28H78.4817V27.68H79.3217V28.88H80.2817V27.32H79.6817V26.72H79.0817V26.12H78.4817V25.28H79.9217V25.88H80.2817V24.92H79.6817V22.88H80.5217V24.2H80.2817V23.12H79.9217V24.68H80.5217V26.12H79.6817V25.52H78.7217V25.88H79.3217V26.48H79.9217V27.08H80.5217V29.12H79.0817V27.92H78.7217V28.52H76.9217V28.88H77.5217V30.32H76.0817ZM73.0817 27.32V26.72H71.2817V25.88H73.0817V25.52H71.8817V24.08H73.3217V24.92H72.6017V24.68H73.0817V24.32H72.1217V25.28H73.3217V26.12H71.5217V26.48H73.3217V27.08H73.6817V24.2H73.9217V27.32H73.0817ZM76.0817 25.52V24.08H76.9217V24.68H77.2817V24.08H78.0017V24.32H77.5217V24.92H76.6817V24.32H76.3217V25.28H77.4017V25.52H76.0817ZM74.4017 24.92V24.68H75.0017V24.92H74.4017ZM78.0017 24.92V24.68H79.2017V24.92H78.0017ZM70.6817 25.52V24.8H70.9217V25.28H71.2817V24.8H71.5217V25.52H70.6817ZM69.4817 28.52V26H69.7217V28.28H70.0817V25.88H70.9217V27.68H71.2817V27.08H72.0017V27.32H71.5217V27.92H70.6817V26.12H70.3217V28.52H69.4817ZM76.0817 26.6V26H76.3217V26.6H76.0817ZM78.4817 27.32V26.6H78.7217V27.08H79.2017V27.32H78.4817ZM71.8817 30.32V29.72H71.2817V28.28H71.8817V27.68H72.4817V27.2H72.7217V27.92H72.1217V28.52H71.5217V29.48H72.1217V30.08H72.4817V29.12H72.0017V28.88H72.7217V30.32H71.8817ZM74.2817 29.72V27.92H73.9217V28.52H73.0817V27.8H73.3217V28.28H73.6817V27.68H74.5217V29.48H75.4817V28.4H75.7217V29.72H74.2817ZM79.6817 28.4V27.8H79.9217V28.4H79.6817ZM70.6817 29V28.4H70.9217V29H70.6817ZM73.6817 30.32V29.12H73.2017V28.88H73.9217V30.08H75.0017V30.32H73.6817ZM77.8817 30.2V29H78.1217V30.2H77.8817ZM78.4817 30.32V29.6H78.7217V30.08H80.2817V29.72H79.2017V29.48H80.5217V30.32H78.4817ZM73.0817 30.2V29.6H73.3217V30.2H73.0817ZM82.5939 22.52V21.92H81.9939V21.08H83.1939V20.48H83.7939V20.12H82.8339V20.72H81.3939V19.88H82.1139V20.12H81.6339V20.48H82.5939V19.88H84.0339V20.72H83.4339V21.32H82.2339V21.68H82.8339V22.28H83.1939V21.8H83.4339V22.52H82.5939ZM82.5939 24.32V23H82.8339V24.08H83.7939V23.72H83.1939V22.88H83.7939V21.08H84.3939V19.88H85.2339V21.92H84.6339V22.28H86.1939V21.92H85.5939V20.6H85.8339V21.68H86.4339V22.52H84.3939V21.68H84.9939V20.12H84.6339V21.32H84.0339V23.12H83.4339V23.48H84.0339V24.32H82.5939ZM88.7139 21.32V21.08H89.1939V20.48H90.6339V21.08H90.9939V20.48H93.3939V20.12H89.3139V19.88H93.6339V20.72H91.2339V21.32H90.3939V20.72H89.4339V21.32H88.7139ZM91.5939 24.8V22.28H92.1939V21.68H92.7939V21.32H91.8339V21.8H91.5939V21.08H93.0339V21.92H92.4339V22.52H91.8339V24.8H91.5939ZM89.7939 21.8V21.2H90.0339V21.8H89.7939ZM87.9939 26.72V24.92H87.0339V26.12H86.1939V25.52H85.2339V26.12H84.3939V24.68H85.5939V24.32H84.3939V22.88H85.8339V23.72H85.1139V23.48H85.5939V23.12H84.6339V24.08H85.8339V24.92H84.6339V25.88H84.9939V25.28H86.4339V25.88H86.7939V24.68H88.2339V26.48H88.5939V24.08H89.7939V23.72H89.1939V23.12H88.5939V21.68H89.4339V22.28H90.0339V23H89.7939V22.52H89.1939V21.92H88.8339V22.88H89.4339V23.48H90.0339V24.32H88.8339V26.72H87.9939ZM90.5139 21.92V21.68H91.1139V21.92H90.5139ZM90.5139 24.32V24.08H90.9939V23.72H90.3939V22.88H90.9939V22.4H91.2339V23.12H90.6339V23.48H91.2339V24.32H90.5139ZM92.1939 23.6V23H92.4339V23.6H92.1939ZM86.1939 23.72V23H86.4339V23.48H86.9139V23.72H86.1939ZM86.3139 24.32V24.08H87.9939V23H88.2339V24.32H86.3139ZM86.7939 33.92V33.2H87.0339V33.68H87.3939V32.48H87.9939V30.08H89.1939V29.72H87.3939V29.12H86.7939V27.68H87.6339V28.28H88.5939V27.68H89.4339V28.88H89.7939V27.68H90.3939V25.52H89.1939V24.68H91.2339V26H90.9939V24.92H89.4339V25.28H90.6339V27.92H90.0339V29.12H89.1939V27.92H88.8339V28.52H87.3939V27.92H87.0339V28.88H87.6339V29.48H89.4339V30.32H88.2339V32.72H87.6339V33.92H86.7939ZM83.3139 25.52V25.28H83.7939V24.92H83.3139V24.68H84.0339V25.52H83.3139ZM87.3939 26V25.4H87.6339V26H87.3939ZM88.7139 27.32V27.08H89.7939V26.12H89.4339V26.6H89.1939V25.88H90.0339V27.32H88.7139ZM83.7939 26.6V26H84.0339V26.6H83.7939ZM85.5939 26.6V26H85.8339V26.6H85.5939ZM85.5939 28.52V27.2H85.8339V28.28H86.1939V27.08H87.3939V26.72H86.3139V26.48H87.6339V27.32H86.4339V28.52H85.5939ZM84.3939 28.52V27.8H84.6339V28.28H84.9939V26.72H84.6339V27.2H84.3939V26.48H85.2339V28.52H84.3939ZM87.9939 27.8V27.2H88.2339V27.8H87.9939ZM84.9939 32.6V32.12H84.3939V30.68H85.5939V30.32H84.9939V28.88H85.8339V29.6H85.5939V29.12H85.2339V30.08H85.8339V30.92H84.6339V31.88H85.2339V32.6H84.9939ZM88.1139 29.12V28.88H88.7139V29.12H88.1139ZM83.7939 33.92V32.48H84.6339V33.2H84.3939V32.72H84.0339V33.68H84.9939V33.08H85.8339V33.68H86.1939V32.72H85.5939V31.88H87.3939V31.52H86.7939V30.92H86.1939V29H86.4339V30.68H87.0339V31.28H87.6339V32.12H85.8339V32.48H86.4339V33.92H85.5939V33.32H85.2339V33.92H83.7939ZM87.3939 30.8V30.32H86.9139V30.08H87.6339V30.8H87.3939ZM85.7139 31.52V31.28H86.3139V31.52H85.7139ZM88.5939 32V31.4H88.8339V32H88.5939Z" fill="white"/>
<path d="M25 13C23.3394 13 21.7882 13.3189 20.3458 13.9568C18.8867 14.5948 17.6121 15.4596 16.5219 16.5509C15.4317 17.642 14.5765 18.9098 13.9558 20.3535C13.3185 21.8143 13 23.3672 13 25.0127C13 26.6747 13.3185 28.236 13.9558 29.6966C14.5765 31.1574 15.4317 32.425 16.5219 33.4994C17.6121 34.5908 18.8867 35.4469 20.3458 36.0682C21.7882 36.6893 23.3394 37 25 37L33.9054 37C34.2914 37 34.6518 36.9243 34.9872 36.7734C35.3228 36.6389 35.6163 36.4459 35.8679 36.194C36.1193 35.9422 36.3205 35.6402 36.4715 35.2876C36.6225 34.9518 36.6981 34.5908 36.6981 34.2047C36.6981 33.5498 36.5052 32.9957 36.1193 32.5426C35.7336 32.0892 35.2472 31.787 34.6602 31.6359C35.3813 30.6788 35.9517 29.6381 36.3709 28.513C36.7903 27.405 37 26.2382 37 25.0127C37 23.3672 36.6896 21.8143 36.0689 20.3535C35.4316 18.9098 34.568 17.642 33.4778 16.5509C32.3876 15.4596 31.113 14.5948 29.654 13.9568C28.195 13.3189 26.6435 13 25 13ZM25 18.4649C25.8889 18.4649 26.7357 18.6326 27.5408 18.9684C28.3291 19.321 29.0251 19.7912 29.629 20.3788C30.2159 20.9833 30.6854 21.6798 31.0377 22.4689C31.3731 23.258 31.5409 24.1059 31.5409 25.0127C31.5409 25.9191 31.3731 26.767 31.0377 27.5561C30.6854 28.3621 30.2159 29.0586 29.629 29.6462C29.0251 30.2338 28.3291 30.6956 27.5408 31.0314C26.7357 31.3671 25.8889 31.5351 25 31.5351C24.0942 31.5351 23.2472 31.3671 22.459 31.0314C21.6541 30.6956 20.958 30.2338 20.371 29.6462C19.7841 29.0586 19.3227 28.3621 18.9874 27.5561C18.6351 26.767 18.4591 25.9191 18.4591 25.0127C18.4591 24.1228 18.6351 23.2749 18.9874 22.4689C19.3227 21.6798 19.7841 20.9833 20.371 20.3788C20.958 19.7912 21.6541 19.321 22.459 18.9684C23.2472 18.6326 24.0942 18.4649 25 18.4649Z" fill="#2B3445"/>
</g>
<defs>
<clipPath id="clip0_903_4">
<rect width="105" height="50" fill="white"/>
</clipPath>
</defs>
</svg>
